<svg width="21" height="28" viewBox="0 0 21 28" fill="none" xmlns="http://www.w3.org/2000/svg">
<path d="M1.59908 27.1077C1.33802 27.1077 1.08765 26.9918 0.903053 26.7855C0.718454 26.5792 0.614746 26.2995 0.614746 26.0078V1.80999C0.614744 1.61515 0.661064 1.4238 0.748967 1.25552C0.83687 1.08724 0.963201 0.948076 1.11504 0.85226C1.26687 0.756444 1.43876 0.707417 1.61312 0.710195C1.78747 0.712973 1.95804 0.767455 2.10737 0.868069L20.0622 12.967C20.2074 13.0648 20.3275 13.203 20.4108 13.368C20.4942 13.533 20.538 13.7193 20.538 13.9087C20.538 14.0982 20.4942 14.2845 20.4108 14.4495C20.3275 14.6145 20.2074 14.7526 20.0622 14.8505L2.10737 26.9494C1.95399 27.0529 1.77824 27.1076 1.59908 27.1077V27.1077ZM2.58342 3.75778V24.06L17.6478 13.9089L2.58342 3.75778Z" fill="#FF8500"/>
</svg>
